<svg xmlns="http://www.w3.org/2000/svg" xmlns:xlink="http://www.w3.org/1999/xlink"><defs><style>
    .sprite-symbol-usage {display: none;}
    .sprite-symbol-usage:target {display: inline;}
  </style><symbol viewBox="0 0 16 16" id="icon-nav">
  <path fill="#95999D" fill-rule="evenodd" d="M4.293,13.293c-0.391,0.39 -0.391,1.024 0,1.414c0.39,0.391 1.024,0.391 1.414,0l6,-6c0.391,-0.39 0.391,-1.024 0,-1.414l-6,-6c-0.39,-0.391 -1.024,-0.391 -1.414,0c-0.391,0.39 -0.391,1.024 0,1.414l5.293,5.293l-5.293,5.293Z" />
</symbol><symbol viewBox="0 0 16 16" id="icon-nav-mobile">
  <g fill="none" fill-rule="evenodd" transform="translate(-160 -128)">
    <path fill="#95999D" fill-rule="nonzero" d="M162.707107,132.292893 C162.316582,131.902369 161.683418,131.902369 161.292893,132.292893 C160.902369,132.683418 160.902369,133.316582 161.292893,133.707107 L167.292893,139.707107 C167.683418,140.097631 168.316582,140.097631 168.707107,139.707107 L174.707107,133.707107 C175.097631,133.316582 175.097631,132.683418 174.707107,132.292893 C174.316582,131.902369 173.683418,131.902369 173.292893,132.292893 L168,137.585786 L162.707107,132.292893 Z" />
  </g>
</symbol><symbol viewBox="0 0 16 16" id="icon-nav-active">
  <path fill="#297EF2" fill-rule="evenodd" d="M4.293,13.293c-0.391,0.39 -0.391,1.024 0,1.414c0.39,0.391 1.024,0.391 1.414,0l6,-6c0.391,-0.39 0.391,-1.024 0,-1.414l-6,-6c-0.39,-0.391 -1.024,-0.391 -1.414,0c-0.391,0.39 -0.391,1.024 0,1.414l5.293,5.293l-5.293,5.293Z" />
</symbol><symbol viewBox="0 0 16 16" id="icon-nav-mobile-active">
  <g fill="none" fill-rule="evenodd" transform="translate(-160 -128)">
    <path fill="#297EF2" fill-rule="nonzero" d="M162.707107,132.292893 C162.316582,131.902369 161.683418,131.902369 161.292893,132.292893 C160.902369,132.683418 160.902369,133.316582 161.292893,133.707107 L167.292893,139.707107 C167.683418,140.097631 168.316582,140.097631 168.707107,139.707107 L174.707107,133.707107 C175.097631,133.316582 175.097631,132.683418 174.707107,132.292893 C174.316582,131.902369 173.683418,131.902369 173.292893,132.292893 L168,137.585786 L162.707107,132.292893 Z" />
  </g>
</symbol></defs><use id="icon-nav-usage" xlink:href="#icon-nav" class="sprite-symbol-usage" /><use id="icon-nav-mobile-usage" xlink:href="#icon-nav-mobile" class="sprite-symbol-usage" /><use id="icon-nav-active-usage" xlink:href="#icon-nav-active" class="sprite-symbol-usage" /><use id="icon-nav-mobile-active-usage" xlink:href="#icon-nav-mobile-active" class="sprite-symbol-usage" /></svg>